<svg width="1024" height="1024" viewBox="0 0 1024 1024" fill="none" xmlns="http://www.w3.org/2000/svg">
<g clip-path="url(#clip0_15_2)">
<path d="M1025 265.55C1019.07 268.778 1013 271.289 1007.25 274.391C996.075 280.418 985.077 286.772 974.012 293.001C955.243 303.567 936.51 314.196 917.703 324.693C904.231 332.213 890.625 339.493 877.149 347.004C858.339 357.489 839.617 368.132 820.812 378.625C807.336 386.145 793.756 393.477 780.275 400.989C761.467 411.469 742.728 422.074 723.909 432.535C720.846 434.237 717.524 435.472 714.5 436.842C714.5 406.839 714.5 377.142 714.5 346C707.817 346 700.957 346.099 694.102 345.98C678.517 345.71 662.935 345.106 647.35 345.057C627.313 344.993 607.45 346.966 587.589 349.831C559.616 353.865 533.11 362.272 507.585 374.066C482.936 385.455 460.351 400.257 438.331 416.046C423.005 427.035 407.203 437.36 391.656 448.042C371.036 462.21 350.6 476.65 329.808 490.558C317.253 498.956 304.172 506.566 290.865 514.818C296.883 518.562 302.932 522.144 308.796 526.005C331.129 540.712 353.574 555.259 375.656 570.334C403.387 589.266 430.566 609.011 458.418 627.757C490.134 649.104 524.713 664.445 562.067 672.786C576.286 675.961 590.929 677.798 605.479 678.807C626.094 680.236 646.799 680.757 667.469 680.854C681.785 680.921 696.107 679.618 710.935 678.903C710.935 648.289 710.935 617.756 710.935 586.321C718.831 590.69 725.998 594.559 733.07 598.592C744.244 604.963 755.336 611.479 766.498 617.87C782.672 627.131 798.863 636.363 815.075 645.557C830.312 654.198 845.61 662.731 860.836 671.391C877.324 680.769 893.728 690.295 910.229 699.65C926.024 708.604 941.946 717.336 957.722 726.324C972.947 734.999 988.048 743.891 1003.22 752.657C1008.5 755.71 1013.89 758.596 1019.13 761.707C1022.04 763.43 1022.09 765.624 1019.13 767.312C1005.16 775.258 991.137 783.11 977.13 790.987C958.36 801.544 939.601 812.12 920.808 822.635C908.04 829.778 895.208 836.805 882.429 843.928C862.777 854.883 843.17 865.918 823.498 876.836C810.435 884.086 797.242 891.103 784.195 898.38C764.961 909.107 745.831 920.021 726.597 930.75C720.733 934.021 714.673 936.943 708.5 940.129C708.5 913.573 708.5 887.62 708.5 860.673C701.019 861.058 693.184 861.466 685.347 861.86C683.858 861.935 682.366 861.993 680.875 861.994C661.377 862.003 641.876 862.237 622.384 861.913C610.208 861.711 597.984 861.218 585.888 859.887C557.726 856.787 529.615 852.791 502.4 844.791C481.985 838.79 461.845 831.635 442.059 823.793C426.736 817.719 411.581 810.761 397.368 802.456C374.872 789.311 353.156 774.822 331.255 760.676C320.554 753.766 310.16 746.379 299.665 739.153C274.944 722.134 250.462 704.756 225.454 688.171C211.137 678.676 196.199 670.05 181.137 661.769C166.539 653.742 151.851 645.588 136.428 639.432C117.561 631.901 97.9969 626.034 78.5272 620.13C64.8585 615.986 50.9316 612.568 36.9558 609.6C25.398 607.146 13.5996 605.824 1.45395 604C1 543.646 1 483.292 1.4164 422.469C3.39693 422.332 5.01879 423.111 6.51512 422.918C12.7672 422.111 18.9899 421.061 25.2085 420.011C51.7529 415.531 77.5912 408.221 103.259 400.291C131.66 391.516 159.441 381.284 184.945 365.603C200.42 356.088 216.5 347.525 231.695 337.595C253.3 323.476 274.34 308.494 295.621 293.88C309.454 284.382 323.504 275.183 337.071 265.32C361.876 247.287 387.719 230.898 415.096 217.174C432.844 208.277 451.085 200.09 469.743 193.356C488.872 186.452 508.584 180.871 528.403 176.268C545.253 172.355 562.577 170.356 579.767 168.076C593.373 166.272 607.072 164.562 620.768 164.173C643.249 163.534 665.761 163.999 688.26 164.003C689.589 164.004 690.921 164.018 692.248 164.086C700.422 164.51 708.596 164.95 717.149 165.405C717.149 137.677 717.149 110.942 717.149 83.4485C727.11 88.9776 736.516 94.1165 745.844 99.3953C762.066 108.576 778.23 117.858 794.435 127.069C807.575 134.538 820.76 141.93 833.888 149.419C849.945 158.578 865.938 167.848 882.006 176.986C895.279 184.534 908.653 191.907 921.928 199.452C937.998 208.584 954.019 217.802 970.046 227.009C983.009 234.455 995.884 242.057 1008.93 249.348C1014.1 252.235 1019.63 254.469 1025 257C1025 259.7 1025 262.4 1025 265.55Z" fill="white"/>
</g>
<defs>
<clipPath id="clip0_15_2">
<rect width="1024" height="1024" fill="white"/>
</clipPath>
</defs>
</svg>
