<svg width="200" height="200" viewBox="0 0 200 200" fill="none" xmlns="http://www.w3.org/2000/svg">
<path d="M86.2205 35.2174C91.4212 29.1532 96.3973 23.3637 101.753 17.1327C106.684 22.8347 111.495 28.0994 115.957 33.6443C120.306 39.0473 124.299 44.7368 128.023 49.7313C140.884 49.7313 153.744 49.7313 166.913 49.7313C166.913 58.7394 166.913 68.3689 166.913 77.7185C174.192 79.8088 181.14 81.804 188.517 83.9226C182.493 100.328 172.881 112.882 158.77 121.773C144.582 130.713 129.072 132.787 111.928 129.103C114.884 134.723 119.112 136.896 124.065 137.898C126.665 138.424 129.347 138.545 131.993 138.838C141.806 139.926 148.413 145.768 151.075 155.234C151.642 157.254 153.006 159.39 154.625 160.709C159.358 164.565 161.497 169.718 159.836 174.686C158.203 179.572 153.065 183.25 148.036 183.134C142.881 183.015 138.447 179.651 136.885 174.673C135.159 169.173 136.727 164.231 142.029 160.923C144.864 159.155 145.024 157.283 143.923 154.755C141.465 149.116 137.218 145.36 131.026 145.245C120.405 145.046 111.488 141.916 105.516 132.392C105.105 132.516 104.695 132.641 104.284 132.766C104.284 141.246 104.204 149.729 104.403 158.205C104.424 159.086 106.006 160.08 107.036 160.762C112.334 164.269 114.229 169.03 112.551 174.924C111.245 179.515 106.745 182.928 101.754 183.113C96.6768 183.301 91.7756 179.986 90.1257 175.249C88.3784 170.232 90.2831 164.993 94.8953 161.144C96.1286 160.114 97.4757 158.368 97.5223 156.911C97.7775 148.938 97.6439 140.952 97.6439 132.335C96.6797 133.003 96.086 133.223 95.7867 133.65C90.144 141.695 82.1866 144.798 72.6209 145.13C63.7311 145.439 58.8907 149.964 57.3915 158.7C58.6969 159.546 60.133 160.364 61.4452 161.347C66.9746 165.49 68.0707 173.42 63.8764 178.599C59.3639 184.17 51.5217 184.659 46.1699 179.704C41.138 175.045 40.8643 167.037 46.2122 162.473C49.1801 159.94 50.6335 157.182 51.7045 153.567C54.2064 145.122 60.2903 140.396 68.8985 138.916C72.8183 138.242 76.934 138.233 80.6498 136.991C83.8502 135.922 86.6092 133.531 89.451 130.76C51.8887 135.191 28.6864 117.347 13.6594 84.1021C21.4271 81.8591 28.6374 79.7771 36.3137 77.5605C36.3137 68.4093 36.3137 58.7967 36.3137 48.2223C49.5906 48.7457 62.4444 49.2524 75.6194 49.7718C78.6298 45.629 82.3129 40.5605 86.2205 35.2174ZM111.266 64.8099C114.673 61.2055 118.081 57.6012 122.545 52.8793C116.008 44.5691 109.214 35.9326 101.716 26.4003C95.1131 34.9853 89.1366 42.6818 83.2526 50.4484C81.4097 52.8809 81.4736 54.886 84.2181 57.1361C92.9095 64.2616 97.8567 73.6893 99.972 84.6654C100.348 86.6174 100.811 88.5526 101.234 90.4956C102.742 81.3046 105.407 72.8447 111.266 64.8099ZM117.916 108.443C115.798 111.682 113.68 114.921 111.32 118.529C140.172 121.201 158.253 108.515 159.665 84.9953C142.357 86.4299 128.955 94.5881 117.916 108.443ZM52.0652 106.385C61.9628 119.367 75.8283 119.892 90.3045 118.622C85.4734 102.43 64.5103 87.2474 43.9458 85.3034C43.9662 93.1793 47.3953 99.6339 52.0652 106.385ZM130.888 80.8266C130.355 83.0964 129.821 85.3662 129.435 87.0105C139.916 83.5743 150.036 80.2563 160.654 76.7749C160.654 70.2147 160.654 62.8152 160.654 54.6123C151.92 55.0683 143.358 55.4072 134.816 56.0173C131.643 56.2439 130.168 57.5718 130.688 61.5789C131.471 67.6127 130.948 73.8158 130.888 80.8266ZM43.07 60.6209C43.07 66.4114 43.07 72.2019 43.07 76.8409C53.8614 80.5845 63.9867 84.097 73.0542 87.2426C73.0542 77.8356 73.0542 67.6889 73.0542 56.2338C62.9071 55.6578 53.2665 55.1105 43.07 54.5316C43.07 56.7729 43.07 58.2118 43.07 60.6209ZM116.751 68.3038C108.019 79.6976 107.326 92.7989 108.379 106.572C123.444 94.3571 127.967 73.4891 122.356 60.624C120.626 62.9864 118.896 65.3488 116.751 68.3038ZM85.6097 95.8056C88.1379 98.966 90.6661 102.126 93.5766 105.765C96.4307 86.8522 90.7927 68.7172 79.2416 62.6043C77.7022 74.1478 78.69 85.1719 85.6097 95.8056ZM53.1169 119.305C53.9893 119.511 54.8618 119.717 55.7342 119.923C44.5223 110.857 39.0291 98.7665 36.4583 84.7158C31.5833 85.7965 27.3124 86.7433 22.7494 87.7549C29.4704 101.953 38.9025 112.448 53.1169 119.305ZM159.08 106.491C155.572 110.644 152.065 114.797 148.557 118.949C163.169 113.258 172.676 102.234 180.038 87.8456C176.37 87.0578 173.187 86.3043 169.974 85.7072C167.61 85.2679 166.681 86.2894 165.928 88.7511C164.146 94.5793 161.704 100.206 159.08 106.491ZM57.2946 175.803C60.84 171.591 60.3844 166.836 56.1471 166.076C54.3193 165.748 51.4024 166.302 50.4634 167.561C49.36 169.04 48.9162 172.592 49.9051 173.674C51.3174 175.218 54.2905 175.334 57.2946 175.803ZM142.999 172.138C143.995 175.876 146.66 177.566 149.993 176C151.749 175.175 153.852 172.028 153.475 170.503C153.009 168.612 150.326 166.387 148.261 165.966C144.711 165.242 142.868 167.676 142.999 172.138ZM99.8777 166.114C98.6347 168.167 96.0952 170.533 96.4951 172.189C96.9399 174.031 100.252 176.578 101.968 176.338C103.829 176.077 106.499 173.049 106.65 171.064C106.895 167.824 104.355 165.734 99.8777 166.114Z" fill="#F8F8F8"/>
<path d="M111.066 65.1098C105.407 72.8447 102.742 81.3046 101.234 90.4956C100.811 88.5526 100.348 86.6174 99.972 84.6654C97.8567 73.6894 92.9095 64.2617 84.218 57.1361C81.4735 54.886 81.4096 52.8809 83.2526 50.4484C89.1366 42.6818 95.113 34.9853 101.716 26.4003C109.214 35.9326 116.008 44.5691 122.545 52.8793C118.081 57.6013 114.673 61.2056 111.066 65.1098Z" fill="#040404"/>
<path d="M118.126 108.153C128.955 94.5881 142.357 86.4299 159.665 84.9954C158.253 108.515 140.172 121.201 111.32 118.529C113.68 114.921 115.798 111.682 118.126 108.153Z" fill="#050505"/>
<path d="M51.8592 106.09C47.3953 99.6339 43.9663 93.1794 43.9458 85.3034C64.5103 87.2475 85.4734 102.43 90.3045 118.622C75.8283 119.892 61.9628 119.367 51.8592 106.09Z" fill="#050505"/>
<path d="M130.934 80.3868C130.948 73.8158 131.471 67.6127 130.688 61.5789C130.168 57.5718 131.643 56.2439 134.816 56.0173C143.358 55.4072 151.92 55.0683 160.654 54.6123C160.654 62.8152 160.654 70.2147 160.654 76.7749C150.036 80.2563 139.916 83.5743 129.435 87.0105C129.821 85.3662 130.355 83.0964 130.934 80.3868Z" fill="#060606"/>
<path d="M43.07 60.1358C43.07 58.2118 43.07 56.7729 43.07 54.5316C53.2665 55.1105 62.9072 55.6578 73.0542 56.2338C73.0542 67.6889 73.0542 77.8357 73.0542 87.2426C63.9867 84.097 53.8614 80.5845 43.07 76.8409C43.07 72.2019 43.07 66.4114 43.07 60.1358Z" fill="#040404"/>
<path d="M116.958 68.0075C118.896 65.3488 120.626 62.9864 122.356 60.624C127.967 73.4892 123.444 94.3571 108.379 106.572C107.326 92.7989 108.019 79.6976 116.958 68.0075Z" fill="#080808"/>
<path d="M85.3966 95.5061C78.69 85.1719 77.7022 74.1478 79.2417 62.6043C90.7928 68.7172 96.4308 86.8522 93.5766 105.765C90.6661 102.126 88.1379 98.966 85.3966 95.5061Z" fill="#050505"/>
<path d="M52.7777 119.164C38.9025 112.448 29.4704 101.953 22.7494 87.7549C27.3123 86.7433 31.5833 85.7965 36.4583 84.7158C39.0291 98.7665 44.5223 110.857 55.7341 119.923C54.8617 119.717 53.9893 119.511 52.7777 119.164Z" fill="#0B0B0B"/>
<path d="M159.304 106.202C161.704 100.206 164.146 94.5793 165.928 88.7511C166.681 86.2894 167.61 85.268 169.974 85.7072C173.187 86.3043 176.37 87.0578 180.038 87.8457C172.676 102.234 163.169 113.258 148.557 118.949C152.065 114.797 155.572 110.644 159.304 106.202Z" fill="#090909"/>
<path d="M56.9458 175.932C54.2905 175.334 51.3174 175.218 49.9051 173.674C48.9162 172.592 49.3601 169.04 50.4634 167.561C51.4024 166.302 54.3193 165.748 56.1471 166.076C60.3844 166.836 60.84 171.591 56.9458 175.932Z" fill="#0E0E0E"/>
<path d="M142.996 171.739C142.868 167.676 144.711 165.242 148.261 165.966C150.326 166.387 153.009 168.612 153.476 170.503C153.852 172.028 151.749 175.175 149.993 176C146.66 177.566 143.995 175.876 142.996 171.739Z" fill="#0C0C0C"/>
<path d="M100.269 166.092C104.355 165.734 106.895 167.824 106.65 171.064C106.499 173.049 103.829 176.077 101.968 176.338C100.252 176.578 96.9399 174.031 96.4951 172.189C96.0952 170.533 98.6347 168.167 100.269 166.092Z" fill="#0E0E0E"/>
</svg>
